<?xml version="1.0" standalone="no"?>
<!DOCTYPE svg PUBLIC "-//W3C//DTD SVG 20010904//EN"
 "http://www.w3.org/TR/2001/REC-SVG-20010904/DTD/svg10.dtd">
<svg version="1.0" xmlns="http://www.w3.org/2000/svg"
 width="574.000000pt" height="87.000000pt" viewBox="0 0 574.000000 87.000000"
 preserveAspectRatio="xMidYMid meet">

<g transform="translate(0.000000,87.000000) scale(0.100000,-0.100000)"
fill="#000000" stroke="none">
<path d="M0 801 l0 -70 43 -4 42 -4 -42 -1 -43 -2 0 -69 0 -70 43 -4 42 -4
-42 -1 -43 -2 0 -69 c0 -52 4 -70 15 -75 10 -3 15 -19 15 -46 l0 -40 195 0
195 0 0 -24 c0 -22 5 -25 43 -29 23 -2 -72 -4 -210 -5 l-253 -2 0 -69 c0 -52
4 -70 15 -75 10 -3 15 -19 15 -46 l0 -40 310 0 310 0 0 235 0 235 -30 0 c-25
0 -30 4 -30 25 l0 25 -180 0 -180 0 0 30 0 30 210 0 210 0 0 95 0 95 -30 0
c-25 0 -30 4 -30 25 l0 25 -295 0 -295 0 0 -69z m637 -31 c1 -33 1 -33 -5 -6
-4 16 -16 33 -27 37 -18 8 -17 8 5 6 21 -2 25 -7 27 -37z m-21 -45 l1 -55
-213 0 -214 0 0 -50 0 -50 -52 2 c-51 1 -51 2 -10 5 l42 4 0 74 0 74 168 0
c273 -1 252 -3 252 26 0 14 6 25 13 25 9 0 13 -17 13 -55z m-468 -2 c-10 -2
-28 -2 -40 0 -13 2 -5 4 17 4 22 1 32 -1 23 -4z m492 -38 l0 -35 -67 2 -68 2
63 3 c61 4 62 4 62 33 0 17 2 30 5 30 3 0 5 -16 5 -35z m-280 -35 l-145 -5 -6
-40 -6 -40 -2 41 c0 22 2 44 6 47 3 4 72 6 152 5 l146 -2 -145 -6z m277 -175
c2 -27 1 -27 -5 -6 -4 13 -16 28 -27 32 -17 8 -17 8 5 6 20 -2 25 -8 27 -32z
m-21 -190 l1 -195 -279 0 -278 0 0 24 0 24 223 1 c122 0 241 0 265 0 l42 1 0
70 0 70 -42 2 -43 1 43 4 42 4 0 95 c0 71 3 94 13 94 10 0 13 -42 13 -195z
m-196 119 l0 -24 -180 0 -180 0 0 24 0 24 180 0 180 1 0 -25z m-312 -37 l57
-3 -62 -2 -63 -2 1 33 c2 29 2 30 6 5 4 -25 8 -27 61 -31z m529 -39 c-2 -18
-4 -4 -4 32 0 36 2 50 4 33 2 -18 2 -48 0 -65z m-274 35 c-34 -2 -93 -2 -130
0 -37 2 -10 3 62 3 72 0 102 -1 68 -3z m274 -175 c-2 -18 -4 -4 -4 32 0 36 2
50 4 33 2 -18 2 -48 0 -65z m-529 -111 l57 -3 -62 -2 -63 -2 1 33 c2 29 2 30
6 5 4 -25 8 -27 61 -31z m532 23 l0 -30 -67 2 -68 2 63 3 c58 4 62 5 62 28 0
14 2 25 5 25 3 0 5 -13 5 -30z m-217 -27 c-45 -2 -122 -2 -170 0 -48 1 -11 3
82 3 94 0 133 -2 88 -3z"/>
<path d="M670 801 l0 -70 43 -4 42 -4 -42 -1 -43 -2 0 -69 0 -70 43 -4 42 -4
-42 -1 -43 -2 0 -139 0 -140 43 -4 42 -4 -42 -1 -43 -2 0 -70 c0 -56 3 -70 15
-70 11 0 15 -12 15 -45 l0 -45 309 0 308 0 5 52 c3 29 3 69 0 90 -4 32 -8 38
-28 38 -19 0 -24 5 -24 25 l0 25 -185 0 -185 0 0 30 0 30 124 0 123 0 5 52 c3
29 3 69 0 90 -4 32 -8 38 -28 38 -19 0 -24 5 -24 25 l0 25 -100 0 -100 0 0 30
0 30 209 0 209 0 4 53 c2 28 2 71 0 95 -4 37 -7 42 -28 42 -19 0 -24 5 -24 25
l0 25 -300 0 -300 0 0 -69z m640 -71 l0 -80 -107 2 -108 2 103 3 102 4 0 69
c0 57 -3 69 -17 73 -14 4 -12 5 5 6 21 1 22 -2 22 -79z m-20 -5 l0 -55 -210 0
-210 0 0 -50 0 -50 -57 2 c-50 1 -52 2 -15 5 l42 4 0 69 0 69 -42 3 c-24 2 51
5 167 5 340 2 305 -1 305 28 0 14 5 25 10 25 6 0 10 -25 10 -55z m-297 -72
l-102 -4 -4 -42 -4 -42 -1 48 -2 47 108 -2 107 -2 -102 -3z m147 -218 c0 -71
-1 -75 -22 -74 -17 1 -19 2 -5 6 14 4 17 16 17 68 0 52 -3 64 -17 68 -14 4
-12 5 5 6 21 1 22 -3 22 -74z m-20 -5 l0 -50 -125 0 -125 0 0 -50 0 -50 -57 2
c-50 1 -52 2 -16 5 l42 4 3 67 3 67 85 2 c47 1 104 2 128 2 38 1 42 3 42 26 0
14 5 25 10 25 6 0 10 -22 10 -50z m-127 -67 l-102 -4 -4 -42 -4 -42 -1 48 -2
47 108 -2 107 -2 -102 -3z m317 -218 l0 -75 -107 2 -108 2 103 3 102 4 0 64
c0 52 -3 64 -17 68 -14 4 -12 5 5 6 21 1 22 -3 22 -74z m-20 -5 l0 -50 -281 0
-280 0 3 23 3 22 225 2 c124 1 244 2 268 2 38 1 42 3 42 26 0 14 5 25 10 25 6
0 10 -22 10 -50z m-552 -63 c12 -3 10 -5 -5 -6 -20 -1 -23 4 -22 32 2 29 2 29
6 5 2 -15 12 -29 21 -31z m275 -4 c-45 -2 -122 -2 -170 0 -48 1 -11 3 82 3 94
0 133 -2 88 -3z"/>
<path d="M1430 801 l0 -70 43 -4 c23 -2 5 -4 -40 -5 l-83 -2 0 -69 0 -70 43
-4 42 -4 -42 -1 -43 -2 -1 -72 c-1 -137 2 -203 12 -206 5 -2 9 -26 9 -53 0
-48 1 -49 30 -49 25 0 30 -4 30 -24 0 -13 7 -26 15 -30 10 -3 15 -19 15 -46
l0 -40 268 2 267 3 3 88 3 87 -31 0 c-25 0 -30 4 -30 25 l0 25 -180 0 -180 0
0 175 0 175 208 2 207 3 3 93 3 92 -31 0 c-25 0 -30 4 -30 25 l0 25 -255 0
-255 0 0 -69z m549 -23 c-2 -30 -2 -30 -6 -6 -2 15 -12 29 -21 31 -12 3 -10 5
6 6 19 1 22 -4 21 -31z m-19 -53 l0 -55 -210 0 -210 0 0 -195 0 -195 -52 2
c-51 1 -51 2 -10 5 l42 4 0 140 0 139 -42 2 -43 1 43 4 42 4 0 74 0 74 168 0
c273 -1 252 -3 252 26 0 14 5 25 10 25 6 0 10 -25 10 -55z m20 -45 c0 -25 -4
-30 -22 -29 -17 1 -19 2 -5 6 10 3 17 14 17 29 0 13 2 24 5 24 3 0 5 -13 5
-30z m-355 -29 c-52 -5 -60 -9 -66 -31 l-7 -25 -1 26 c-1 36 5 39 73 37 l61
-1 -60 -6z m248 2 c-35 -2 -91 -2 -125 0 -35 2 -7 3 62 3 69 0 97 -1 63 -3z
m-316 -170 c-2 -16 -4 -3 -4 27 0 30 2 43 4 28 2 -16 2 -40 0 -55z m0 -170
c-2 -21 -4 -6 -4 32 0 39 2 55 4 38 2 -18 2 -50 0 -70z m-127 -53 c0 -16 -4
-30 -10 -30 -5 0 -10 14 -10 30 0 17 5 30 10 30 6 0 10 -13 10 -30z m-17 -43
c18 -4 17 -5 -5 -6 -26 -1 -28 2 -26 37 1 36 1 36 5 5 3 -23 10 -33 26 -36z
m566 -24 c-1 -23 -2 -24 -6 -6 -2 12 -12 24 -21 26 -12 3 -10 5 6 6 18 1 22
-4 21 -26z m-19 -53 l0 -50 -236 0 -235 0 3 23 c3 22 4 22 188 24 102 1 202 2
223 3 33 0 37 3 37 25 0 14 5 25 10 25 6 0 10 -22 10 -50z m-377 -63 l102 -3
-107 -2 -108 -2 2 38 c1 36 1 36 5 5 l4 -32 102 -4z m397 18 c0 -20 -5 -25
-22 -24 -17 1 -19 2 -5 6 9 2 17 13 17 24 0 10 2 19 5 19 3 0 5 -11 5 -25z
m-107 -22 c-35 -2 -91 -2 -125 0 -35 2 -7 3 62 3 69 0 97 -1 63 -3z"/>
<path d="M2020 801 l0 -70 43 -4 42 -4 -42 -1 -43 -2 0 -69 0 -70 43 -4 42 -4
-42 -1 -43 -2 0 -139 0 -140 43 -4 42 -4 -42 -1 -43 -2 0 -69 c0 -52 4 -70 15
-75 10 -3 15 -19 15 -46 l0 -40 310 0 310 0 0 90 0 90 -30 0 c-25 0 -30 4 -30
25 l0 25 -180 0 -180 0 0 30 0 30 124 0 123 0 5 52 c3 29 3 69 0 90 -4 32 -8
38 -28 38 -19 0 -24 5 -24 25 l0 25 -100 0 -100 0 0 30 0 30 210 0 210 0 0 95
0 95 -30 0 c-25 0 -30 4 -30 25 l0 25 -295 0 -295 0 0 -69z m640 -71 l0 -80
-67 2 -68 2 63 3 62 4 0 69 c0 57 -3 69 -17 73 -14 4 -12 5 5 6 21 1 22 -2 22
-79z m-20 -5 l0 -55 -210 0 -210 0 0 -50 0 -50 -57 2 c-50 1 -52 2 -15 5 l42
4 0 69 0 69 -42 3 c-24 2 52 5 167 5 116 1 229 2 253 2 38 1 42 3 42 26 0 16
6 25 15 25 12 0 15 -13 15 -55z m-382 -72 c-12 -3 -18 -17 -21 -46 l-4 -42 -1
48 c-2 43 0 47 21 46 16 -1 17 -3 5 -6z m205 0 c-35 -2 -91 -2 -125 0 -35 2
-7 3 62 3 69 0 97 -1 63 -3z m27 -218 l0 -75 -107 2 -108 2 103 3 102 4 0 64
c0 52 -3 64 -17 68 -14 4 -12 5 5 6 21 1 22 -3 22 -74z m-20 -5 l0 -50 -125 0
-125 0 0 -50 0 -50 -57 2 c-50 1 -52 2 -16 5 l42 4 3 67 3 67 80 2 c44 1 101
2 128 2 43 1 47 3 47 26 0 14 5 25 10 25 6 0 10 -22 10 -50z m-212 -67 c-12
-3 -18 -17 -21 -46 l-4 -42 -1 48 c-2 43 0 47 21 46 16 -1 17 -3 5 -6z m402
-218 l0 -75 -67 2 -68 2 63 3 62 4 0 64 c0 52 -3 64 -17 68 -14 4 -12 5 5 6
21 1 22 -3 22 -74z m-20 -5 l0 -50 -281 0 -280 0 3 23 3 22 225 2 c124 1 242
2 263 2 33 1 37 4 37 26 0 16 6 25 15 25 11 0 15 -12 15 -50z m-467 -63 l102
-3 -107 -2 -108 -2 2 38 c1 36 1 36 5 5 l4 -32 102 -4z m290 -4 c-35 -2 -91
-2 -125 0 -35 2 -7 3 62 3 69 0 97 -1 63 -3z"/>
<path d="M2700 801 l0 -70 43 -4 42 -4 -42 -1 -43 -2 0 -69 0 -70 43 -4 42 -4
-42 -1 -43 -2 0 -70 c0 -40 4 -70 10 -70 6 0 10 -20 10 -45 0 -43 1 -45 30
-45 25 0 30 -4 30 -24 0 -13 7 -26 15 -30 10 -4 15 -20 15 -51 0 -41 2 -45 25
-45 20 0 25 -5 25 -25 0 -16 6 -25 15 -25 11 0 15 -12 15 -45 l0 -45 185 0
185 0 0 69 0 70 43 3 42 3 3 73 3 72 39 0 40 0 0 240 0 240 -30 0 c-25 0 -30
4 -30 25 0 25 -1 25 -85 25 l-85 0 0 -69 0 -70 43 -4 42 -4 -42 -1 -43 -2 0
-69 0 -70 43 -4 42 -4 -42 -1 -43 -2 0 -70 0 -70 -40 0 -40 0 0 -69 0 -70 43
-3 c23 -2 61 -1 85 1 l42 3 0 69 0 69 40 0 40 0 0 69 0 70 -42 4 -43 4 43 1
42 2 0 69 0 70 -42 4 -43 4 43 1 c38 2 42 5 42 27 0 16 6 25 15 25 13 0 15
-29 15 -200 l0 -200 -45 0 -45 0 0 -75 0 -75 -40 0 -40 0 0 -70 0 -70 -156 0
-155 0 3 23 c3 23 -2 23 241 26 l37 1 0 70 0 70 -95 0 -95 0 0 50 c0 49 -1 50
-30 50 -25 0 -30 4 -30 25 0 16 -6 25 -15 25 -13 0 -15 23 -14 158 2 243 3
232 -26 232 -20 0 -25 5 -25 25 0 25 -1 25 -85 25 l-85 0 0 -69z m208 -183
l-3 -193 -2 187 c-3 167 -5 187 -21 191 -12 3 -11 5 6 6 l22 1 -2 -192z m512
-32 l0 -225 -42 -3 c-35 -2 -43 -7 -50 -28 -6 -23 -7 -23 -5 5 2 28 5 30 45
33 l42 3 0 214 c0 195 -2 214 -17 218 -14 4 -12 5 5 6 l22 1 0 -224z m-530 19
c0 -110 -4 -175 -10 -175 -6 0 -10 30 -10 70 l0 70 -42 2 -43 1 43 4 42 4 0
70 0 69 -42 2 -43 1 43 4 c37 4 42 7 42 29 0 13 5 24 10 24 6 0 10 -65 10
-175z m-110 -200 c0 -14 -4 -25 -10 -25 -5 0 -10 11 -10 25 0 14 5 25 10 25 6
0 10 -11 10 -25z m-17 -38 c18 -4 17 -5 -5 -6 -25 -1 -28 2 -27 32 2 29 2 29
6 5 3 -18 12 -28 26 -31z m233 -47 l2 -45 -7 39 c-4 26 -13 42 -26 47 -18 8
-17 8 5 6 22 -2 25 -7 26 -47z m-16 -10 l0 -30 -57 2 c-50 1 -52 2 -15 5 37 4
42 7 42 29 0 15 6 24 15 24 10 0 15 -10 15 -30z m-132 -93 c12 -3 11 -5 -5 -6
-21 -1 -23 3 -21 42 l1 42 4 -37 c3 -24 10 -38 21 -41z m12 43 c0 -16 -4 -30
-10 -30 -11 0 -14 43 -3 53 11 12 13 8 13 -23z m470 -20 c0 -28 -2 -30 -40
-30 l-40 0 0 -70 0 -70 -67 2 -68 2 63 3 62 4 0 69 0 70 40 0 c36 0 40 3 40
25 0 14 2 25 5 25 3 0 5 -13 5 -30z m-317 -163 l102 -3 -107 -2 -108 -2 1 33
c2 29 2 30 6 5 l4 -27 102 -4z"/>
<path d="M3450 801 l0 -70 43 -4 42 -4 -42 -1 -43 -2 0 -69 0 -70 43 -4 42 -4
-42 -1 -43 -2 0 -70 c0 -56 3 -70 15 -70 11 0 15 -12 15 -45 l0 -45 200 0 200
0 0 -24 c0 -22 5 -25 43 -29 l42 -4 -42 -1 -43 -2 0 -70 c0 -40 4 -70 10 -70
6 0 10 -20 10 -45 l0 -45 100 0 100 0 1 43 c1 49 1 646 0 695 -1 27 -5 32 -26
32 -20 0 -25 5 -25 25 0 25 -1 25 -85 25 l-85 0 0 -69 0 -70 43 -4 42 -4 -42
-1 -43 -2 0 -69 0 -70 43 -4 c23 -2 -23 -4 -102 -5 l-143 -2 2 88 c4 156 3
162 -25 162 -20 0 -25 5 -25 25 0 25 -1 25 -90 25 l-90 0 0 -69z m218 -113
l-2 -123 -3 117 c-3 100 -6 117 -21 121 -12 3 -11 5 6 6 22 1 22 0 20 -121z
m422 -248 l0 -370 -22 1 c-17 1 -19 2 -5 6 16 4 17 30 17 363 0 333 -1 359
-17 363 -14 4 -12 5 5 6 l22 1 0 -370z m-440 235 l0 -105 -57 2 c-57 2 -57 2
-10 5 l47 4 0 70 0 69 -47 2 -48 2 48 3 c42 4 47 7 47 29 0 13 5 24 10 24 6 0
10 -42 10 -105z m420 -240 l0 -345 -65 0 c-63 0 -65 1 -65 25 0 15 5 25 13 24
6 -1 31 -1 55 0 l42 1 0 70 0 70 -42 2 -43 1 43 4 42 4 0 140 0 139 -42 2 -43
1 43 4 42 4 0 70 0 69 -42 2 -43 1 43 4 c37 4 42 7 42 29 0 13 5 24 10 24 6 0
10 -122 10 -345z m-192 -32 l3 -23 -185 0 c-174 0 -186 1 -186 18 0 10 3 21 6
24 3 3 85 5 182 4 175 -1 177 -1 180 -23z m-275 -36 l102 -3 -107 -2 -108 -2
1 33 c2 29 2 30 6 5 l4 -27 102 -4z m230 -4 c-24 -2 -62 -2 -85 0 -24 2 -5 4
42 4 47 0 66 -2 43 -4z m150 -286 l62 -3 -67 -2 -68 -2 1 33 c2 29 2 30 6 5 4
-26 8 -27 66 -31z"/>
<path d="M4130 801 l0 -70 43 -4 42 -4 -42 -1 -43 -2 0 -69 0 -70 43 -4 42 -4
-42 -1 -43 -2 0 -139 0 -140 43 -4 42 -4 -42 -1 -43 -2 0 -69 c0 -52 4 -70 15
-75 10 -3 15 -19 15 -46 l0 -40 310 0 310 0 0 90 0 90 -30 0 c-25 0 -30 4 -30
25 l0 25 -180 0 -180 0 0 270 0 270 -30 0 c-25 0 -30 4 -30 25 0 25 -1 25 -85
25 l-85 0 0 -69z m209 -23 c-2 -30 -2 -30 -6 -6 -2 15 -12 29 -21 31 -12 3
-10 5 6 6 19 1 22 -4 21 -31z m-19 -248 l0 -250 -52 2 c-51 1 -51 2 -10 5 l42
4 0 140 0 139 -42 2 -43 1 43 4 42 4 0 70 0 69 -42 2 -43 1 43 4 c37 4 42 7
42 29 0 13 5 24 10 24 6 0 10 -90 10 -250z m17 98 c-2 -18 -4 -6 -4 27 0 33 2
48 4 33 2 -15 2 -42 0 -60z m0 -145 c-2 -16 -4 -3 -4 27 0 30 2 43 4 28 2 -16
2 -40 0 -55z m0 -170 c-2 -21 -4 -6 -4 32 0 39 2 55 4 38 2 -18 2 -50 0 -70z
m430 -128 c2 -27 1 -27 -5 -6 -4 13 -16 28 -27 32 -17 8 -17 8 5 6 20 -2 25
-8 27 -32z m-21 -45 l0 -50 -278 0 -278 0 0 24 0 24 223 1 c341 0 307 -3 307
26 0 14 6 25 13 25 8 0 12 -17 13 -50z m-508 -63 l57 -3 -62 -2 -63 -2 1 33
c2 29 2 30 6 5 4 -25 8 -27 61 -31z m532 23 l0 -30 -67 2 -68 2 63 3 c58 4 62
5 62 28 0 14 2 25 5 25 3 0 5 -13 5 -30z m-217 -27 c-45 -2 -122 -2 -170 0
-48 1 -11 3 82 3 94 0 133 -2 88 -3z"/>
<path d="M4800 801 l0 -70 43 -4 42 -4 -42 -1 -43 -2 0 -69 0 -70 43 -4 42 -4
-42 -1 -43 -2 0 -139 0 -140 43 -4 42 -4 -42 -1 -43 -2 0 -70 c0 -56 3 -70 15
-70 11 0 15 -12 15 -45 l0 -45 100 0 100 0 0 385 0 385 -30 0 c-25 0 -30 4
-30 25 0 25 -1 25 -85 25 l-85 0 0 -69z m220 -361 l0 -370 -67 2 -68 2 63 3
62 4 0 359 c0 333 -1 359 -17 363 -14 4 -12 5 5 6 l22 1 0 -370z m-20 -5 l0
-345 -71 0 c-67 0 -70 1 -67 23 3 23 5 24 68 26 l40 1 0 70 0 70 -42 2 -43 1
43 4 42 4 0 140 0 139 -42 2 -43 1 43 4 42 4 0 70 0 69 -42 2 -43 1 43 4 c37
4 42 7 42 29 0 15 6 24 15 24 13 0 15 -45 15 -345z m-132 -358 c12 -3 10 -5
-5 -6 -20 -1 -23 4 -22 32 2 29 2 29 6 5 2 -15 12 -29 21 -31z"/>
<path d="M5140 801 l0 -70 43 -4 c23 -2 5 -4 -40 -5 l-83 -2 0 -69 0 -70 43
-4 42 -4 -42 -1 -41 -2 -4 -72 c-2 -40 -2 -103 0 -140 l3 -67 42 -4 42 -4 -42
-1 -43 -2 0 -70 c0 -40 4 -70 10 -70 6 0 10 -20 10 -45 l0 -45 100 0 100 0 1
43 c1 23 1 88 1 145 l0 102 99 0 c98 0 99 0 99 -24 0 -22 5 -25 43 -29 l42 -4
-42 -1 -43 -2 0 -70 c0 -40 4 -70 10 -70 6 0 10 -20 10 -45 l0 -46 103 3 102
3 3 308 2 307 -30 0 c-25 0 -30 4 -30 25 0 16 -6 25 -15 25 -11 0 -15 12 -15
50 0 49 -1 50 -30 50 -25 0 -30 4 -30 25 l0 25 -210 0 -210 0 0 -69z m468 -38
l-1 -48 -4 42 c-3 29 -9 43 -21 46 -12 3 -11 5 6 6 20 1 22 -3 20 -46z m-18
-13 c0 -30 -1 -30 -55 -30 -52 0 -55 -1 -55 -25 l0 -25 -115 0 -115 0 0 -50 0
-50 -52 2 c-51 1 -51 2 -10 5 l42 4 0 74 0 74 123 0 c219 -1 207 -2 207 26 0
16 6 25 15 25 10 0 15 -10 15 -30z m-215 -99 l-100 -6 -6 -40 -6 -40 -2 41 c0
22 2 44 6 47 3 4 52 6 107 5 l101 -2 -100 -5z m314 -23 c-2 -30 -2 -30 -6 -6
-2 15 -12 29 -21 31 -12 3 -10 5 6 6 19 1 22 -4 21 -31z m-209 -22 c0 -22 5
-25 43 -29 23 -2 -22 -4 -100 -5 l-143 -2 0 30 0 30 100 0 c99 0 100 0 100
-24z m190 -246 l0 -270 -65 0 c-63 0 -65 1 -65 25 0 15 5 25 13 24 6 -1 31 -1
55 0 l42 1 0 70 0 70 -42 2 -43 1 43 4 42 4 0 140 0 139 -42 2 -43 1 43 4 c37
4 42 7 42 29 0 13 5 24 10 24 6 0 10 -97 10 -270z m17 123 c-2 -16 -4 -3 -4
27 0 30 2 43 4 28 2 -16 2 -40 0 -55z m-209 -80 c3 -23 2 -23 -112 -23 l-116
0 0 -145 0 -145 -65 0 c-63 0 -65 1 -65 25 0 15 5 25 13 24 6 -1 31 -1 55 0
l42 1 0 70 0 70 -42 2 -43 1 43 4 42 4 0 69 0 69 123 -2 c118 -2 122 -3 125
-24z m209 -70 c-2 -16 -4 -3 -4 27 0 30 2 43 4 28 2 -16 2 -40 0 -55z m-312
28 l-100 -6 -3 -142 c-3 -141 -3 -143 -25 -142 -17 1 -18 2 -4 6 15 4 17 19
17 142 0 76 3 141 7 144 3 4 52 6 107 5 l101 -2 -100 -5z m312 -168 c-2 -16
-4 -3 -4 27 0 30 2 43 4 28 2 -16 2 -40 0 -55z m-524 -116 l62 -3 -67 -2 -68
-2 1 33 c2 29 2 30 6 5 4 -26 8 -27 66 -31z m437 3 c74 0 79 1 83 23 4 19 4
18 6 -5 l1 -28 -90 0 -90 0 1 33 c2 30 2 30 6 5 4 -28 5 -28 83 -28z"/>
</g>
</svg>
