<?xml version="1.0" encoding="UTF-8"?>
<svg xmlns="http://www.w3.org/2000/svg" xmlns:xlink="http://www.w3.org/1999/xlink" width="572" height="135" viewBox="0 0 572 135">
<defs>
<g>
<g id="glyph-0-0">
</g>
<g id="glyph-0-1">
<path d="M -0.140625 3.5 L -0.140625 -13.125 L 8.5625 -13.125 L 8.5625 3.5 Z M -0.140625 3.5 "/>
</g>
<g id="glyph-0-2">
<path d="M 4.765625 3.5 L 4.765625 -5.40625 L -0.140625 -5.40625 L -0.140625 -6.578125 L 5.859375 -6.578125 L 5.859375 3.5 Z M 2.578125 3.5 L 2.578125 -3.046875 L -0.140625 -3.046875 L -0.140625 -4.21875 L 3.671875 -4.21875 L 3.671875 3.5 Z M 2.578125 3.5 "/>
</g>
<g id="glyph-0-3">
<path d="M 2.578125 3.5 L 2.578125 -6.578125 L 8.5625 -6.578125 L 8.5625 -5.40625 L 3.671875 -5.40625 L 3.671875 3.5 Z M 4.765625 3.5 L 4.765625 -4.21875 L 8.5625 -4.21875 L 8.5625 -3.046875 L 5.859375 -3.046875 L 5.859375 3.5 Z M 4.765625 3.5 "/>
</g>
<g id="glyph-0-4">
<path d="M -0.140625 -5.40625 L -0.140625 -6.578125 L 8.5625 -6.578125 L 8.5625 -5.40625 Z M -0.140625 -3.046875 L -0.140625 -4.21875 L 8.5625 -4.21875 L 8.5625 -3.046875 Z M -0.140625 -3.046875 "/>
</g>
<g id="glyph-0-5">
<path d="M -0.140625 -5.40625 L -0.140625 -6.578125 L 2.578125 -6.578125 L 2.578125 -13.125 L 3.671875 -13.125 L 3.671875 -5.40625 Z M -0.140625 -3.046875 L -0.140625 -4.21875 L 4.765625 -4.21875 L 4.765625 -13.125 L 5.859375 -13.125 L 5.859375 -3.046875 Z M -0.140625 -3.046875 "/>
</g>
<g id="glyph-0-6">
<path d="M 2.578125 3.5 L 2.578125 -13.125 L 3.671875 -13.125 L 3.671875 3.5 Z M 4.765625 3.5 L 4.765625 -13.125 L 5.859375 -13.125 L 5.859375 3.5 Z M 4.765625 3.5 "/>
</g>
<g id="glyph-0-7">
<path d="M 4.765625 -5.40625 L 4.765625 -13.125 L 5.859375 -13.125 L 5.859375 -6.578125 L 8.5625 -6.578125 L 8.5625 -5.40625 Z M 2.578125 -3.046875 L 2.578125 -13.125 L 3.671875 -13.125 L 3.671875 -4.21875 L 8.5625 -4.21875 L 8.5625 -3.046875 Z M 2.578125 -3.046875 "/>
</g>
</g>
</defs>
<g fill="rgb(54.509804%, 0%, 0%)" fill-opacity="1">
<use xlink:href="#glyph-0-0" x="10" y="39.291992"/>
<use xlink:href="#glyph-0-1" x="18" y="39.291992"/>
<use xlink:href="#glyph-0-1" x="26" y="39.291992"/>
<use xlink:href="#glyph-0-1" x="34" y="39.291992"/>
<use xlink:href="#glyph-0-1" x="42" y="39.291992"/>
<use xlink:href="#glyph-0-1" x="50" y="39.291992"/>
<use xlink:href="#glyph-0-1" x="58" y="39.291992"/>
<use xlink:href="#glyph-0-1" x="66" y="39.291992"/>
<use xlink:href="#glyph-0-2" x="74" y="39.291992"/>
<use xlink:href="#glyph-0-1" x="82" y="39.291992"/>
<use xlink:href="#glyph-0-1" x="90" y="39.291992"/>
<use xlink:href="#glyph-0-1" x="98" y="39.291992"/>
<use xlink:href="#glyph-0-1" x="106" y="39.291992"/>
<use xlink:href="#glyph-0-1" x="114" y="39.291992"/>
<use xlink:href="#glyph-0-1" x="122" y="39.291992"/>
<use xlink:href="#glyph-0-1" x="130" y="39.291992"/>
<use xlink:href="#glyph-0-2" x="138" y="39.291992"/>
<use xlink:href="#glyph-0-0" x="146" y="39.291992"/>
<use xlink:href="#glyph-0-1" x="154" y="39.291992"/>
<use xlink:href="#glyph-0-1" x="162" y="39.291992"/>
<use xlink:href="#glyph-0-1" x="170" y="39.291992"/>
<use xlink:href="#glyph-0-1" x="178" y="39.291992"/>
<use xlink:href="#glyph-0-1" x="186" y="39.291992"/>
<use xlink:href="#glyph-0-1" x="194" y="39.291992"/>
<use xlink:href="#glyph-0-2" x="202" y="39.291992"/>
<use xlink:href="#glyph-0-1" x="210" y="39.291992"/>
<use xlink:href="#glyph-0-1" x="218" y="39.291992"/>
<use xlink:href="#glyph-0-1" x="226" y="39.291992"/>
<use xlink:href="#glyph-0-1" x="234" y="39.291992"/>
<use xlink:href="#glyph-0-1" x="242" y="39.291992"/>
<use xlink:href="#glyph-0-1" x="250" y="39.291992"/>
<use xlink:href="#glyph-0-1" x="258" y="39.291992"/>
<use xlink:href="#glyph-0-2" x="266" y="39.291992"/>
<use xlink:href="#glyph-0-1" x="274" y="39.291992"/>
<use xlink:href="#glyph-0-1" x="282" y="39.291992"/>
<use xlink:href="#glyph-0-2" x="290" y="39.291992"/>
<use xlink:href="#glyph-0-0" x="298" y="39.291992"/>
<use xlink:href="#glyph-0-0" x="306" y="39.291992"/>
<use xlink:href="#glyph-0-0" x="314" y="39.291992"/>
<use xlink:href="#glyph-0-1" x="322" y="39.291992"/>
<use xlink:href="#glyph-0-1" x="330" y="39.291992"/>
<use xlink:href="#glyph-0-2" x="338" y="39.291992"/>
<use xlink:href="#glyph-0-1" x="346" y="39.291992"/>
<use xlink:href="#glyph-0-1" x="354" y="39.291992"/>
<use xlink:href="#glyph-0-2" x="362" y="39.291992"/>
<use xlink:href="#glyph-0-0" x="370" y="39.291992"/>
<use xlink:href="#glyph-0-0" x="378" y="39.291992"/>
<use xlink:href="#glyph-0-1" x="386" y="39.291992"/>
<use xlink:href="#glyph-0-1" x="394" y="39.291992"/>
<use xlink:href="#glyph-0-2" x="402" y="39.291992"/>
<use xlink:href="#glyph-0-1" x="410" y="39.291992"/>
<use xlink:href="#glyph-0-1" x="418" y="39.291992"/>
<use xlink:href="#glyph-0-2" x="426" y="39.291992"/>
<use xlink:href="#glyph-0-0" x="434" y="39.291992"/>
<use xlink:href="#glyph-0-0" x="442" y="39.291992"/>
<use xlink:href="#glyph-0-0" x="450" y="39.291992"/>
<use xlink:href="#glyph-0-0" x="458" y="39.291992"/>
<use xlink:href="#glyph-0-0" x="466" y="39.291992"/>
<use xlink:href="#glyph-0-1" x="474" y="39.291992"/>
<use xlink:href="#glyph-0-1" x="482" y="39.291992"/>
<use xlink:href="#glyph-0-2" x="490" y="39.291992"/>
<use xlink:href="#glyph-0-0" x="498" y="39.291992"/>
<use xlink:href="#glyph-0-1" x="506" y="39.291992"/>
<use xlink:href="#glyph-0-1" x="514" y="39.291992"/>
<use xlink:href="#glyph-0-1" x="522" y="39.291992"/>
<use xlink:href="#glyph-0-1" x="530" y="39.291992"/>
<use xlink:href="#glyph-0-1" x="538" y="39.291992"/>
<use xlink:href="#glyph-0-2" x="546" y="39.291992"/>
<use xlink:href="#glyph-0-0" x="554" y="39.291992"/>
</g>
<g fill="rgb(54.509804%, 0%, 0%)" fill-opacity="1">
<use xlink:href="#glyph-0-0" x="10" y="55.588867"/>
<use xlink:href="#glyph-0-1" x="18" y="55.588867"/>
<use xlink:href="#glyph-0-1" x="26" y="55.588867"/>
<use xlink:href="#glyph-0-3" x="34" y="55.588867"/>
<use xlink:href="#glyph-0-4" x="42" y="55.588867"/>
<use xlink:href="#glyph-0-4" x="50" y="55.588867"/>
<use xlink:href="#glyph-0-4" x="58" y="55.588867"/>
<use xlink:href="#glyph-0-4" x="66" y="55.588867"/>
<use xlink:href="#glyph-0-5" x="74" y="55.588867"/>
<use xlink:href="#glyph-0-1" x="82" y="55.588867"/>
<use xlink:href="#glyph-0-1" x="90" y="55.588867"/>
<use xlink:href="#glyph-0-3" x="98" y="55.588867"/>
<use xlink:href="#glyph-0-4" x="106" y="55.588867"/>
<use xlink:href="#glyph-0-4" x="114" y="55.588867"/>
<use xlink:href="#glyph-0-4" x="122" y="55.588867"/>
<use xlink:href="#glyph-0-4" x="130" y="55.588867"/>
<use xlink:href="#glyph-0-5" x="138" y="55.588867"/>
<use xlink:href="#glyph-0-1" x="146" y="55.588867"/>
<use xlink:href="#glyph-0-1" x="154" y="55.588867"/>
<use xlink:href="#glyph-0-3" x="162" y="55.588867"/>
<use xlink:href="#glyph-0-4" x="170" y="55.588867"/>
<use xlink:href="#glyph-0-4" x="178" y="55.588867"/>
<use xlink:href="#glyph-0-4" x="186" y="55.588867"/>
<use xlink:href="#glyph-0-4" x="194" y="55.588867"/>
<use xlink:href="#glyph-0-5" x="202" y="55.588867"/>
<use xlink:href="#glyph-0-1" x="210" y="55.588867"/>
<use xlink:href="#glyph-0-1" x="218" y="55.588867"/>
<use xlink:href="#glyph-0-3" x="226" y="55.588867"/>
<use xlink:href="#glyph-0-4" x="234" y="55.588867"/>
<use xlink:href="#glyph-0-4" x="242" y="55.588867"/>
<use xlink:href="#glyph-0-4" x="250" y="55.588867"/>
<use xlink:href="#glyph-0-4" x="258" y="55.588867"/>
<use xlink:href="#glyph-0-5" x="266" y="55.588867"/>
<use xlink:href="#glyph-0-1" x="274" y="55.588867"/>
<use xlink:href="#glyph-0-1" x="282" y="55.588867"/>
<use xlink:href="#glyph-0-6" x="290" y="55.588867"/>
<use xlink:href="#glyph-0-0" x="298" y="55.588867"/>
<use xlink:href="#glyph-0-0" x="306" y="55.588867"/>
<use xlink:href="#glyph-0-0" x="314" y="55.588867"/>
<use xlink:href="#glyph-0-1" x="322" y="55.588867"/>
<use xlink:href="#glyph-0-1" x="330" y="55.588867"/>
<use xlink:href="#glyph-0-6" x="338" y="55.588867"/>
<use xlink:href="#glyph-0-1" x="346" y="55.588867"/>
<use xlink:href="#glyph-0-1" x="354" y="55.588867"/>
<use xlink:href="#glyph-0-6" x="362" y="55.588867"/>
<use xlink:href="#glyph-0-0" x="370" y="55.588867"/>
<use xlink:href="#glyph-0-0" x="378" y="55.588867"/>
<use xlink:href="#glyph-0-1" x="386" y="55.588867"/>
<use xlink:href="#glyph-0-1" x="394" y="55.588867"/>
<use xlink:href="#glyph-0-6" x="402" y="55.588867"/>
<use xlink:href="#glyph-0-1" x="410" y="55.588867"/>
<use xlink:href="#glyph-0-1" x="418" y="55.588867"/>
<use xlink:href="#glyph-0-6" x="426" y="55.588867"/>
<use xlink:href="#glyph-0-0" x="434" y="55.588867"/>
<use xlink:href="#glyph-0-0" x="442" y="55.588867"/>
<use xlink:href="#glyph-0-0" x="450" y="55.588867"/>
<use xlink:href="#glyph-0-0" x="458" y="55.588867"/>
<use xlink:href="#glyph-0-0" x="466" y="55.588867"/>
<use xlink:href="#glyph-0-1" x="474" y="55.588867"/>
<use xlink:href="#glyph-0-1" x="482" y="55.588867"/>
<use xlink:href="#glyph-0-6" x="490" y="55.588867"/>
<use xlink:href="#glyph-0-1" x="498" y="55.588867"/>
<use xlink:href="#glyph-0-1" x="506" y="55.588867"/>
<use xlink:href="#glyph-0-3" x="514" y="55.588867"/>
<use xlink:href="#glyph-0-4" x="522" y="55.588867"/>
<use xlink:href="#glyph-0-4" x="530" y="55.588867"/>
<use xlink:href="#glyph-0-1" x="538" y="55.588867"/>
<use xlink:href="#glyph-0-1" x="546" y="55.588867"/>
<use xlink:href="#glyph-0-2" x="554" y="55.588867"/>
</g>
<g fill="rgb(54.509804%, 0%, 0%)" fill-opacity="1">
<use xlink:href="#glyph-0-0" x="10" y="71.885742"/>
<use xlink:href="#glyph-0-1" x="18" y="71.885742"/>
<use xlink:href="#glyph-0-1" x="26" y="71.885742"/>
<use xlink:href="#glyph-0-1" x="34" y="71.885742"/>
<use xlink:href="#glyph-0-1" x="42" y="71.885742"/>
<use xlink:href="#glyph-0-1" x="50" y="71.885742"/>
<use xlink:href="#glyph-0-1" x="58" y="71.885742"/>
<use xlink:href="#glyph-0-1" x="66" y="71.885742"/>
<use xlink:href="#glyph-0-2" x="74" y="71.885742"/>
<use xlink:href="#glyph-0-1" x="82" y="71.885742"/>
<use xlink:href="#glyph-0-1" x="90" y="71.885742"/>
<use xlink:href="#glyph-0-1" x="98" y="71.885742"/>
<use xlink:href="#glyph-0-1" x="106" y="71.885742"/>
<use xlink:href="#glyph-0-1" x="114" y="71.885742"/>
<use xlink:href="#glyph-0-2" x="122" y="71.885742"/>
<use xlink:href="#glyph-0-0" x="130" y="71.885742"/>
<use xlink:href="#glyph-0-0" x="138" y="71.885742"/>
<use xlink:href="#glyph-0-1" x="146" y="71.885742"/>
<use xlink:href="#glyph-0-1" x="154" y="71.885742"/>
<use xlink:href="#glyph-0-6" x="162" y="71.885742"/>
<use xlink:href="#glyph-0-0" x="170" y="71.885742"/>
<use xlink:href="#glyph-0-0" x="178" y="71.885742"/>
<use xlink:href="#glyph-0-0" x="186" y="71.885742"/>
<use xlink:href="#glyph-0-0" x="194" y="71.885742"/>
<use xlink:href="#glyph-0-0" x="202" y="71.885742"/>
<use xlink:href="#glyph-0-1" x="210" y="71.885742"/>
<use xlink:href="#glyph-0-1" x="218" y="71.885742"/>
<use xlink:href="#glyph-0-1" x="226" y="71.885742"/>
<use xlink:href="#glyph-0-1" x="234" y="71.885742"/>
<use xlink:href="#glyph-0-1" x="242" y="71.885742"/>
<use xlink:href="#glyph-0-2" x="250" y="71.885742"/>
<use xlink:href="#glyph-0-0" x="258" y="71.885742"/>
<use xlink:href="#glyph-0-0" x="266" y="71.885742"/>
<use xlink:href="#glyph-0-1" x="274" y="71.885742"/>
<use xlink:href="#glyph-0-1" x="282" y="71.885742"/>
<use xlink:href="#glyph-0-6" x="290" y="71.885742"/>
<use xlink:href="#glyph-0-0" x="298" y="71.885742"/>
<use xlink:href="#glyph-0-0" x="306" y="71.885742"/>
<use xlink:href="#glyph-0-0" x="314" y="71.885742"/>
<use xlink:href="#glyph-0-1" x="322" y="71.885742"/>
<use xlink:href="#glyph-0-1" x="330" y="71.885742"/>
<use xlink:href="#glyph-0-6" x="338" y="71.885742"/>
<use xlink:href="#glyph-0-1" x="346" y="71.885742"/>
<use xlink:href="#glyph-0-1" x="354" y="71.885742"/>
<use xlink:href="#glyph-0-1" x="362" y="71.885742"/>
<use xlink:href="#glyph-0-1" x="370" y="71.885742"/>
<use xlink:href="#glyph-0-1" x="378" y="71.885742"/>
<use xlink:href="#glyph-0-1" x="386" y="71.885742"/>
<use xlink:href="#glyph-0-1" x="394" y="71.885742"/>
<use xlink:href="#glyph-0-6" x="402" y="71.885742"/>
<use xlink:href="#glyph-0-1" x="410" y="71.885742"/>
<use xlink:href="#glyph-0-1" x="418" y="71.885742"/>
<use xlink:href="#glyph-0-6" x="426" y="71.885742"/>
<use xlink:href="#glyph-0-0" x="434" y="71.885742"/>
<use xlink:href="#glyph-0-0" x="442" y="71.885742"/>
<use xlink:href="#glyph-0-0" x="450" y="71.885742"/>
<use xlink:href="#glyph-0-0" x="458" y="71.885742"/>
<use xlink:href="#glyph-0-0" x="466" y="71.885742"/>
<use xlink:href="#glyph-0-1" x="474" y="71.885742"/>
<use xlink:href="#glyph-0-1" x="482" y="71.885742"/>
<use xlink:href="#glyph-0-6" x="490" y="71.885742"/>
<use xlink:href="#glyph-0-1" x="498" y="71.885742"/>
<use xlink:href="#glyph-0-1" x="506" y="71.885742"/>
<use xlink:href="#glyph-0-1" x="514" y="71.885742"/>
<use xlink:href="#glyph-0-1" x="522" y="71.885742"/>
<use xlink:href="#glyph-0-1" x="530" y="71.885742"/>
<use xlink:href="#glyph-0-1" x="538" y="71.885742"/>
<use xlink:href="#glyph-0-1" x="546" y="71.885742"/>
<use xlink:href="#glyph-0-6" x="554" y="71.885742"/>
</g>
<g fill="rgb(54.509804%, 0%, 0%)" fill-opacity="1">
<use xlink:href="#glyph-0-0" x="10" y="88.182617"/>
<use xlink:href="#glyph-0-7" x="18" y="88.182617"/>
<use xlink:href="#glyph-0-4" x="26" y="88.182617"/>
<use xlink:href="#glyph-0-4" x="34" y="88.182617"/>
<use xlink:href="#glyph-0-4" x="42" y="88.182617"/>
<use xlink:href="#glyph-0-4" x="50" y="88.182617"/>
<use xlink:href="#glyph-0-1" x="58" y="88.182617"/>
<use xlink:href="#glyph-0-1" x="66" y="88.182617"/>
<use xlink:href="#glyph-0-6" x="74" y="88.182617"/>
<use xlink:href="#glyph-0-1" x="82" y="88.182617"/>
<use xlink:href="#glyph-0-1" x="90" y="88.182617"/>
<use xlink:href="#glyph-0-3" x="98" y="88.182617"/>
<use xlink:href="#glyph-0-4" x="106" y="88.182617"/>
<use xlink:href="#glyph-0-4" x="114" y="88.182617"/>
<use xlink:href="#glyph-0-5" x="122" y="88.182617"/>
<use xlink:href="#glyph-0-0" x="130" y="88.182617"/>
<use xlink:href="#glyph-0-0" x="138" y="88.182617"/>
<use xlink:href="#glyph-0-1" x="146" y="88.182617"/>
<use xlink:href="#glyph-0-1" x="154" y="88.182617"/>
<use xlink:href="#glyph-0-6" x="162" y="88.182617"/>
<use xlink:href="#glyph-0-0" x="170" y="88.182617"/>
<use xlink:href="#glyph-0-0" x="178" y="88.182617"/>
<use xlink:href="#glyph-0-0" x="186" y="88.182617"/>
<use xlink:href="#glyph-0-0" x="194" y="88.182617"/>
<use xlink:href="#glyph-0-0" x="202" y="88.182617"/>
<use xlink:href="#glyph-0-1" x="210" y="88.182617"/>
<use xlink:href="#glyph-0-1" x="218" y="88.182617"/>
<use xlink:href="#glyph-0-3" x="226" y="88.182617"/>
<use xlink:href="#glyph-0-4" x="234" y="88.182617"/>
<use xlink:href="#glyph-0-4" x="242" y="88.182617"/>
<use xlink:href="#glyph-0-5" x="250" y="88.182617"/>
<use xlink:href="#glyph-0-0" x="258" y="88.182617"/>
<use xlink:href="#glyph-0-0" x="266" y="88.182617"/>
<use xlink:href="#glyph-0-7" x="274" y="88.182617"/>
<use xlink:href="#glyph-0-1" x="282" y="88.182617"/>
<use xlink:href="#glyph-0-1" x="290" y="88.182617"/>
<use xlink:href="#glyph-0-2" x="298" y="88.182617"/>
<use xlink:href="#glyph-0-0" x="306" y="88.182617"/>
<use xlink:href="#glyph-0-1" x="314" y="88.182617"/>
<use xlink:href="#glyph-0-1" x="322" y="88.182617"/>
<use xlink:href="#glyph-0-3" x="330" y="88.182617"/>
<use xlink:href="#glyph-0-5" x="338" y="88.182617"/>
<use xlink:href="#glyph-0-7" x="346" y="88.182617"/>
<use xlink:href="#glyph-0-4" x="354" y="88.182617"/>
<use xlink:href="#glyph-0-4" x="362" y="88.182617"/>
<use xlink:href="#glyph-0-4" x="370" y="88.182617"/>
<use xlink:href="#glyph-0-4" x="378" y="88.182617"/>
<use xlink:href="#glyph-0-1" x="386" y="88.182617"/>
<use xlink:href="#glyph-0-1" x="394" y="88.182617"/>
<use xlink:href="#glyph-0-6" x="402" y="88.182617"/>
<use xlink:href="#glyph-0-1" x="410" y="88.182617"/>
<use xlink:href="#glyph-0-1" x="418" y="88.182617"/>
<use xlink:href="#glyph-0-6" x="426" y="88.182617"/>
<use xlink:href="#glyph-0-0" x="434" y="88.182617"/>
<use xlink:href="#glyph-0-0" x="442" y="88.182617"/>
<use xlink:href="#glyph-0-0" x="450" y="88.182617"/>
<use xlink:href="#glyph-0-0" x="458" y="88.182617"/>
<use xlink:href="#glyph-0-0" x="466" y="88.182617"/>
<use xlink:href="#glyph-0-1" x="474" y="88.182617"/>
<use xlink:href="#glyph-0-1" x="482" y="88.182617"/>
<use xlink:href="#glyph-0-6" x="490" y="88.182617"/>
<use xlink:href="#glyph-0-1" x="498" y="88.182617"/>
<use xlink:href="#glyph-0-1" x="506" y="88.182617"/>
<use xlink:href="#glyph-0-3" x="514" y="88.182617"/>
<use xlink:href="#glyph-0-4" x="522" y="88.182617"/>
<use xlink:href="#glyph-0-4" x="530" y="88.182617"/>
<use xlink:href="#glyph-0-1" x="538" y="88.182617"/>
<use xlink:href="#glyph-0-1" x="546" y="88.182617"/>
<use xlink:href="#glyph-0-6" x="554" y="88.182617"/>
</g>
<g fill="rgb(54.509804%, 0%, 0%)" fill-opacity="1">
<use xlink:href="#glyph-0-0" x="10" y="104.479492"/>
<use xlink:href="#glyph-0-1" x="18" y="104.479492"/>
<use xlink:href="#glyph-0-1" x="26" y="104.479492"/>
<use xlink:href="#glyph-0-1" x="34" y="104.479492"/>
<use xlink:href="#glyph-0-1" x="42" y="104.479492"/>
<use xlink:href="#glyph-0-1" x="50" y="104.479492"/>
<use xlink:href="#glyph-0-1" x="58" y="104.479492"/>
<use xlink:href="#glyph-0-1" x="66" y="104.479492"/>
<use xlink:href="#glyph-0-6" x="74" y="104.479492"/>
<use xlink:href="#glyph-0-1" x="82" y="104.479492"/>
<use xlink:href="#glyph-0-1" x="90" y="104.479492"/>
<use xlink:href="#glyph-0-1" x="98" y="104.479492"/>
<use xlink:href="#glyph-0-1" x="106" y="104.479492"/>
<use xlink:href="#glyph-0-1" x="114" y="104.479492"/>
<use xlink:href="#glyph-0-1" x="122" y="104.479492"/>
<use xlink:href="#glyph-0-1" x="130" y="104.479492"/>
<use xlink:href="#glyph-0-2" x="138" y="104.479492"/>
<use xlink:href="#glyph-0-7" x="146" y="104.479492"/>
<use xlink:href="#glyph-0-1" x="154" y="104.479492"/>
<use xlink:href="#glyph-0-1" x="162" y="104.479492"/>
<use xlink:href="#glyph-0-1" x="170" y="104.479492"/>
<use xlink:href="#glyph-0-1" x="178" y="104.479492"/>
<use xlink:href="#glyph-0-1" x="186" y="104.479492"/>
<use xlink:href="#glyph-0-1" x="194" y="104.479492"/>
<use xlink:href="#glyph-0-2" x="202" y="104.479492"/>
<use xlink:href="#glyph-0-1" x="210" y="104.479492"/>
<use xlink:href="#glyph-0-1" x="218" y="104.479492"/>
<use xlink:href="#glyph-0-1" x="226" y="104.479492"/>
<use xlink:href="#glyph-0-1" x="234" y="104.479492"/>
<use xlink:href="#glyph-0-1" x="242" y="104.479492"/>
<use xlink:href="#glyph-0-1" x="250" y="104.479492"/>
<use xlink:href="#glyph-0-1" x="258" y="104.479492"/>
<use xlink:href="#glyph-0-2" x="266" y="104.479492"/>
<use xlink:href="#glyph-0-0" x="274" y="104.479492"/>
<use xlink:href="#glyph-0-7" x="282" y="104.479492"/>
<use xlink:href="#glyph-0-1" x="290" y="104.479492"/>
<use xlink:href="#glyph-0-1" x="298" y="104.479492"/>
<use xlink:href="#glyph-0-1" x="306" y="104.479492"/>
<use xlink:href="#glyph-0-1" x="314" y="104.479492"/>
<use xlink:href="#glyph-0-3" x="322" y="104.479492"/>
<use xlink:href="#glyph-0-5" x="330" y="104.479492"/>
<use xlink:href="#glyph-0-0" x="338" y="104.479492"/>
<use xlink:href="#glyph-0-0" x="346" y="104.479492"/>
<use xlink:href="#glyph-0-0" x="354" y="104.479492"/>
<use xlink:href="#glyph-0-0" x="362" y="104.479492"/>
<use xlink:href="#glyph-0-0" x="370" y="104.479492"/>
<use xlink:href="#glyph-0-0" x="378" y="104.479492"/>
<use xlink:href="#glyph-0-1" x="386" y="104.479492"/>
<use xlink:href="#glyph-0-1" x="394" y="104.479492"/>
<use xlink:href="#glyph-0-6" x="402" y="104.479492"/>
<use xlink:href="#glyph-0-1" x="410" y="104.479492"/>
<use xlink:href="#glyph-0-1" x="418" y="104.479492"/>
<use xlink:href="#glyph-0-1" x="426" y="104.479492"/>
<use xlink:href="#glyph-0-1" x="434" y="104.479492"/>
<use xlink:href="#glyph-0-1" x="442" y="104.479492"/>
<use xlink:href="#glyph-0-1" x="450" y="104.479492"/>
<use xlink:href="#glyph-0-1" x="458" y="104.479492"/>
<use xlink:href="#glyph-0-2" x="466" y="104.479492"/>
<use xlink:href="#glyph-0-1" x="474" y="104.479492"/>
<use xlink:href="#glyph-0-1" x="482" y="104.479492"/>
<use xlink:href="#glyph-0-6" x="490" y="104.479492"/>
<use xlink:href="#glyph-0-1" x="498" y="104.479492"/>
<use xlink:href="#glyph-0-1" x="506" y="104.479492"/>
<use xlink:href="#glyph-0-6" x="514" y="104.479492"/>
<use xlink:href="#glyph-0-0" x="522" y="104.479492"/>
<use xlink:href="#glyph-0-0" x="530" y="104.479492"/>
<use xlink:href="#glyph-0-1" x="538" y="104.479492"/>
<use xlink:href="#glyph-0-1" x="546" y="104.479492"/>
<use xlink:href="#glyph-0-6" x="554" y="104.479492"/>
</g>
<g fill="rgb(54.509804%, 0%, 0%)" fill-opacity="1">
<use xlink:href="#glyph-0-0" x="10" y="120.776367"/>
<use xlink:href="#glyph-0-7" x="18" y="120.776367"/>
<use xlink:href="#glyph-0-4" x="26" y="120.776367"/>
<use xlink:href="#glyph-0-4" x="34" y="120.776367"/>
<use xlink:href="#glyph-0-4" x="42" y="120.776367"/>
<use xlink:href="#glyph-0-4" x="50" y="120.776367"/>
<use xlink:href="#glyph-0-4" x="58" y="120.776367"/>
<use xlink:href="#glyph-0-4" x="66" y="120.776367"/>
<use xlink:href="#glyph-0-5" x="74" y="120.776367"/>
<use xlink:href="#glyph-0-7" x="82" y="120.776367"/>
<use xlink:href="#glyph-0-4" x="90" y="120.776367"/>
<use xlink:href="#glyph-0-4" x="98" y="120.776367"/>
<use xlink:href="#glyph-0-4" x="106" y="120.776367"/>
<use xlink:href="#glyph-0-4" x="114" y="120.776367"/>
<use xlink:href="#glyph-0-4" x="122" y="120.776367"/>
<use xlink:href="#glyph-0-4" x="130" y="120.776367"/>
<use xlink:href="#glyph-0-5" x="138" y="120.776367"/>
<use xlink:href="#glyph-0-0" x="146" y="120.776367"/>
<use xlink:href="#glyph-0-7" x="154" y="120.776367"/>
<use xlink:href="#glyph-0-4" x="162" y="120.776367"/>
<use xlink:href="#glyph-0-4" x="170" y="120.776367"/>
<use xlink:href="#glyph-0-4" x="178" y="120.776367"/>
<use xlink:href="#glyph-0-4" x="186" y="120.776367"/>
<use xlink:href="#glyph-0-4" x="194" y="120.776367"/>
<use xlink:href="#glyph-0-5" x="202" y="120.776367"/>
<use xlink:href="#glyph-0-7" x="210" y="120.776367"/>
<use xlink:href="#glyph-0-4" x="218" y="120.776367"/>
<use xlink:href="#glyph-0-4" x="226" y="120.776367"/>
<use xlink:href="#glyph-0-4" x="234" y="120.776367"/>
<use xlink:href="#glyph-0-4" x="242" y="120.776367"/>
<use xlink:href="#glyph-0-4" x="250" y="120.776367"/>
<use xlink:href="#glyph-0-4" x="258" y="120.776367"/>
<use xlink:href="#glyph-0-5" x="266" y="120.776367"/>
<use xlink:href="#glyph-0-0" x="274" y="120.776367"/>
<use xlink:href="#glyph-0-0" x="282" y="120.776367"/>
<use xlink:href="#glyph-0-7" x="290" y="120.776367"/>
<use xlink:href="#glyph-0-4" x="298" y="120.776367"/>
<use xlink:href="#glyph-0-4" x="306" y="120.776367"/>
<use xlink:href="#glyph-0-4" x="314" y="120.776367"/>
<use xlink:href="#glyph-0-5" x="322" y="120.776367"/>
<use xlink:href="#glyph-0-0" x="330" y="120.776367"/>
<use xlink:href="#glyph-0-0" x="338" y="120.776367"/>
<use xlink:href="#glyph-0-0" x="346" y="120.776367"/>
<use xlink:href="#glyph-0-0" x="354" y="120.776367"/>
<use xlink:href="#glyph-0-0" x="362" y="120.776367"/>
<use xlink:href="#glyph-0-0" x="370" y="120.776367"/>
<use xlink:href="#glyph-0-0" x="378" y="120.776367"/>
<use xlink:href="#glyph-0-7" x="386" y="120.776367"/>
<use xlink:href="#glyph-0-4" x="394" y="120.776367"/>
<use xlink:href="#glyph-0-5" x="402" y="120.776367"/>
<use xlink:href="#glyph-0-7" x="410" y="120.776367"/>
<use xlink:href="#glyph-0-4" x="418" y="120.776367"/>
<use xlink:href="#glyph-0-4" x="426" y="120.776367"/>
<use xlink:href="#glyph-0-4" x="434" y="120.776367"/>
<use xlink:href="#glyph-0-4" x="442" y="120.776367"/>
<use xlink:href="#glyph-0-4" x="450" y="120.776367"/>
<use xlink:href="#glyph-0-4" x="458" y="120.776367"/>
<use xlink:href="#glyph-0-5" x="466" y="120.776367"/>
<use xlink:href="#glyph-0-7" x="474" y="120.776367"/>
<use xlink:href="#glyph-0-4" x="482" y="120.776367"/>
<use xlink:href="#glyph-0-5" x="490" y="120.776367"/>
<use xlink:href="#glyph-0-7" x="498" y="120.776367"/>
<use xlink:href="#glyph-0-4" x="506" y="120.776367"/>
<use xlink:href="#glyph-0-5" x="514" y="120.776367"/>
<use xlink:href="#glyph-0-0" x="522" y="120.776367"/>
<use xlink:href="#glyph-0-0" x="530" y="120.776367"/>
<use xlink:href="#glyph-0-7" x="538" y="120.776367"/>
<use xlink:href="#glyph-0-4" x="546" y="120.776367"/>
<use xlink:href="#glyph-0-5" x="554" y="120.776367"/>
</g>
</svg>
