<svg xmlns="http://www.w3.org/2000/svg" width="610" height="95" class="svgbob"><style>.svgbob line, .svgbob path, .svgbob circle, .svgbob rect, .svgbob polygon {
    stroke: #500000ff;
    stroke-width: 2;
    stroke-opacity: 1;
    fill-opacity: 1;
    stroke-linecap: round;
    stroke-linejoin: miter;
}
.svgbob text {
    white-space: pre;
    fill: #8B0000;
    font-family: Iosevka Fixed, monospace;
    font-size: 14px;
}
.svgbob rect.backdrop {
    stroke: none;
    fill: transparent;
}
.svgbob .broken {
    stroke-dasharray: 8;
}
.svgbob .filled {
    fill: #8B0000;
}
.svgbob .bg_filled {
    fill: white;
    stroke-width: 1;
}
.svgbob .nofill {
    fill: white;
}
.svgbob .end_marked_arrow {
    marker-end: url(#arrow);
}
.svgbob .start_marked_arrow {
    marker-start: url(#arrow);
}
.svgbob .end_marked_diamond {
    marker-end: url(#diamond);
}
.svgbob .start_marked_diamond {
    marker-start: url(#diamond);
}
.svgbob .end_marked_circle {
    marker-end: url(#circle);
}
.svgbob .start_marked_circle {
    marker-start: url(#circle);
}
.svgbob .end_marked_open_circle {
    marker-end: url(#open_circle);
}
.svgbob .start_marked_open_circle {
    marker-start: url(#open_circle);
}
.svgbob .end_marked_big_open_circle {
    marker-end: url(#big_open_circle);
}
.svgbob .start_marked_big_open_circle {
    marker-start: url(#big_open_circle);
}<!--separator--></style><defs><marker id="arrow" viewBox="-2 -2 8 8" refX="4" refY="2" markerWidth="7" markerHeight="7" orient="auto-start-reverse"><polygon points="0,0 0,4 4,2 0,0"></polygon></marker><marker id="diamond" viewBox="-2 -2 8 8" refX="4" refY="2" markerWidth="7" markerHeight="7" orient="auto-start-reverse"><polygon points="0,2 2,0 4,2 2,4 0,2"></polygon></marker><marker id="circle" viewBox="0 0 8 8" refX="4" refY="4" markerWidth="7" markerHeight="7" orient="auto-start-reverse"><circle cx="4" cy="4" r="2" class="filled"></circle></marker><marker id="open_circle" viewBox="0 0 8 8" refX="4" refY="4" markerWidth="7" markerHeight="7" orient="auto-start-reverse"><circle cx="4" cy="4" r="2" class="bg_filled"></circle></marker><marker id="big_open_circle" viewBox="0 0 8 8" refX="4" refY="4" markerWidth="7" markerHeight="7" orient="auto-start-reverse"><circle cx="4" cy="4" r="3" class="bg_filled"></circle></marker></defs><rect class="backdrop" x="0" y="0" width="616" height="112"></rect><rect x="0" y="0" width="8" height="16" class="solid filled" rx="0"></rect><rect x="8" y="0" width="8" height="16" class="solid filled" rx="0"></rect><rect x="40" y="0" width="8" height="16" class="solid filled" rx="0"></rect><rect x="48" y="0" width="8" height="16" class="solid filled" rx="0"></rect><rect x="72" y="0" width="8" height="16" class="solid filled" rx="0"></rect><rect x="80" y="0" width="8" height="16" class="solid filled" rx="0"></rect><rect x="88" y="0" width="8" height="16" class="solid filled" rx="0"></rect><rect x="96" y="0" width="8" height="16" class="solid filled" rx="0"></rect><rect x="104" y="0" width="8" height="16" class="solid filled" rx="0"></rect><rect x="136" y="0" width="8" height="16" class="solid filled" rx="0"></rect><rect x="144" y="0" width="8" height="16" class="solid filled" rx="0"></rect><rect x="152" y="0" width="8" height="16" class="solid filled" rx="0"></rect><rect x="160" y="0" width="8" height="16" class="solid filled" rx="0"></rect><rect x="168" y="0" width="8" height="16" class="solid filled" rx="0"></rect><rect x="176" y="0" width="8" height="16" class="solid filled" rx="0"></rect><rect x="192" y="0" width="8" height="16" class="solid filled" rx="0"></rect><rect x="200" y="0" width="8" height="16" class="solid filled" rx="0"></rect><rect x="232" y="0" width="8" height="16" class="solid filled" rx="0"></rect><rect x="240" y="0" width="8" height="16" class="solid filled" rx="0"></rect><rect x="264" y="0" width="8" height="16" class="solid filled" rx="0"></rect><rect x="272" y="0" width="8" height="16" class="solid filled" rx="0"></rect><rect x="280" y="0" width="8" height="16" class="solid filled" rx="0"></rect><rect x="288" y="0" width="8" height="16" class="solid filled" rx="0"></rect><rect x="296" y="0" width="8" height="16" class="solid filled" rx="0"></rect><rect x="328" y="0" width="8" height="16" class="solid filled" rx="0"></rect><rect x="336" y="0" width="8" height="16" class="solid filled" rx="0"></rect><rect x="344" y="0" width="8" height="16" class="solid filled" rx="0"></rect><rect x="352" y="0" width="8" height="16" class="solid filled" rx="0"></rect><rect x="360" y="0" width="8" height="16" class="solid filled" rx="0"></rect><rect x="368" y="0" width="8" height="16" class="solid filled" rx="0"></rect><rect x="392" y="0" width="8" height="16" class="solid filled" rx="0"></rect><rect x="400" y="0" width="8" height="16" class="solid filled" rx="0"></rect><rect x="408" y="0" width="8" height="16" class="solid filled" rx="0"></rect><rect x="416" y="0" width="8" height="16" class="solid filled" rx="0"></rect><rect x="424" y="0" width="8" height="16" class="solid filled" rx="0"></rect><rect x="432" y="0" width="8" height="16" class="solid filled" rx="0"></rect><rect x="440" y="0" width="8" height="16" class="solid filled" rx="0"></rect><rect x="456" y="0" width="8" height="16" class="solid filled" rx="0"></rect><rect x="464" y="0" width="8" height="16" class="solid filled" rx="0"></rect><rect x="472" y="0" width="8" height="16" class="solid filled" rx="0"></rect><rect x="512" y="0" width="8" height="16" class="solid filled" rx="0"></rect><rect x="520" y="0" width="8" height="16" class="solid filled" rx="0"></rect><rect x="536" y="0" width="8" height="16" class="solid filled" rx="0"></rect><rect x="544" y="0" width="8" height="16" class="solid filled" rx="0"></rect><rect x="552" y="0" width="8" height="16" class="solid filled" rx="0"></rect><rect x="560" y="0" width="8" height="16" class="solid filled" rx="0"></rect><rect x="568" y="0" width="8" height="16" class="solid filled" rx="0"></rect><rect x="576" y="0" width="8" height="16" class="solid filled" rx="0"></rect><rect x="584" y="0" width="8" height="16" class="solid filled" rx="0"></rect><rect x="592" y="0" width="8" height="16" class="solid filled" rx="0"></rect><rect x="0" y="16" width="8" height="16" class="solid filled" rx="0"></rect><rect x="8" y="16" width="8" height="16" class="solid filled" rx="0"></rect><rect x="40" y="16" width="8" height="16" class="solid filled" rx="0"></rect><rect x="48" y="16" width="8" height="16" class="solid filled" rx="0"></rect><rect x="64" y="16" width="8" height="16" class="solid filled" rx="0"></rect><rect x="72" y="16" width="8" height="16" class="solid filled" rx="0"></rect><rect x="104" y="16" width="8" height="16" class="solid filled" rx="0"></rect><rect x="112" y="16" width="8" height="16" class="solid filled" rx="0"></rect><rect x="128" y="16" width="8" height="16" class="solid filled" rx="0"></rect><rect x="136" y="16" width="8" height="16" class="solid filled" rx="0"></rect><rect x="192" y="16" width="8" height="16" class="solid filled" rx="0"></rect><rect x="200" y="16" width="8" height="16" class="solid filled" rx="0"></rect><rect x="224" y="16" width="8" height="16" class="solid filled" rx="0"></rect><rect x="232" y="16" width="8" height="16" class="solid filled" rx="0"></rect><rect x="256" y="16" width="8" height="16" class="solid filled" rx="0"></rect><rect x="264" y="16" width="8" height="16" class="solid filled" rx="0"></rect><rect x="296" y="16" width="8" height="16" class="solid filled" rx="0"></rect><rect x="304" y="16" width="8" height="16" class="solid filled" rx="0"></rect><rect x="320" y="16" width="8" height="16" class="solid filled" rx="0"></rect><rect x="328" y="16" width="8" height="16" class="solid filled" rx="0"></rect><rect x="392" y="16" width="8" height="16" class="solid filled" rx="0"></rect><rect x="400" y="16" width="8" height="16" class="solid filled" rx="0"></rect><rect x="456" y="16" width="8" height="16" class="solid filled" rx="0"></rect><rect x="464" y="16" width="8" height="16" class="solid filled" rx="0"></rect><rect x="472" y="16" width="8" height="16" class="solid filled" rx="0"></rect><rect x="480" y="16" width="8" height="16" class="solid filled" rx="0"></rect><rect x="512" y="16" width="8" height="16" class="solid filled" rx="0"></rect><rect x="520" y="16" width="8" height="16" class="solid filled" rx="0"></rect><rect x="560" y="16" width="8" height="16" class="solid filled" rx="0"></rect><rect x="568" y="16" width="8" height="16" class="solid filled" rx="0"></rect><rect x="0" y="32" width="8" height="16" class="solid filled" rx="0"></rect><rect x="8" y="32" width="8" height="16" class="solid filled" rx="0"></rect><rect x="16" y="32" width="8" height="16" class="solid filled" rx="0"></rect><rect x="24" y="32" width="8" height="16" class="solid filled" rx="0"></rect><rect x="32" y="32" width="8" height="16" class="solid filled" rx="0"></rect><rect x="40" y="32" width="8" height="16" class="solid filled" rx="0"></rect><rect x="48" y="32" width="8" height="16" class="solid filled" rx="0"></rect><rect x="64" y="32" width="8" height="16" class="solid filled" rx="0"></rect><rect x="72" y="32" width="8" height="16" class="solid filled" rx="0"></rect><rect x="80" y="32" width="8" height="16" class="solid filled" rx="0"></rect><rect x="88" y="32" width="8" height="16" class="solid filled" rx="0"></rect><rect x="96" y="32" width="8" height="16" class="solid filled" rx="0"></rect><rect x="104" y="32" width="8" height="16" class="solid filled" rx="0"></rect><rect x="112" y="32" width="8" height="16" class="solid filled" rx="0"></rect><rect x="128" y="32" width="8" height="16" class="solid filled" rx="0"></rect><rect x="136" y="32" width="8" height="16" class="solid filled" rx="0"></rect><rect x="192" y="32" width="8" height="16" class="solid filled" rx="0"></rect><rect x="200" y="32" width="8" height="16" class="solid filled" rx="0"></rect><rect x="208" y="32" width="8" height="16" class="solid filled" rx="0"></rect><rect x="216" y="32" width="8" height="16" class="solid filled" rx="0"></rect><rect x="224" y="32" width="8" height="16" class="solid filled" rx="0"></rect><rect x="256" y="32" width="8" height="16" class="solid filled" rx="0"></rect><rect x="264" y="32" width="8" height="16" class="solid filled" rx="0"></rect><rect x="272" y="32" width="8" height="16" class="solid filled" rx="0"></rect><rect x="280" y="32" width="8" height="16" class="solid filled" rx="0"></rect><rect x="288" y="32" width="8" height="16" class="solid filled" rx="0"></rect><rect x="296" y="32" width="8" height="16" class="solid filled" rx="0"></rect><rect x="304" y="32" width="8" height="16" class="solid filled" rx="0"></rect><rect x="320" y="32" width="8" height="16" class="solid filled" rx="0"></rect><rect x="328" y="32" width="8" height="16" class="solid filled" rx="0"></rect><rect x="360" y="32" width="8" height="16" class="solid filled" rx="0"></rect><rect x="368" y="32" width="8" height="16" class="solid filled" rx="0"></rect><rect x="376" y="32" width="8" height="16" class="solid filled" rx="0"></rect><rect x="392" y="32" width="8" height="16" class="solid filled" rx="0"></rect><rect x="400" y="32" width="8" height="16" class="solid filled" rx="0"></rect><rect x="408" y="32" width="8" height="16" class="solid filled" rx="0"></rect><rect x="416" y="32" width="8" height="16" class="solid filled" rx="0"></rect><rect x="424" y="32" width="8" height="16" class="solid filled" rx="0"></rect><rect x="456" y="32" width="8" height="16" class="solid filled" rx="0"></rect><rect x="464" y="32" width="8" height="16" class="solid filled" rx="0"></rect><rect x="480" y="32" width="8" height="16" class="solid filled" rx="0"></rect><rect x="488" y="32" width="8" height="16" class="solid filled" rx="0"></rect><rect x="512" y="32" width="8" height="16" class="solid filled" rx="0"></rect><rect x="520" y="32" width="8" height="16" class="solid filled" rx="0"></rect><rect x="560" y="32" width="8" height="16" class="solid filled" rx="0"></rect><rect x="568" y="32" width="8" height="16" class="solid filled" rx="0"></rect><rect x="0" y="48" width="8" height="16" class="solid filled" rx="0"></rect><rect x="8" y="48" width="8" height="16" class="solid filled" rx="0"></rect><rect x="40" y="48" width="8" height="16" class="solid filled" rx="0"></rect><rect x="48" y="48" width="8" height="16" class="solid filled" rx="0"></rect><rect x="64" y="48" width="8" height="16" class="solid filled" rx="0"></rect><rect x="72" y="48" width="8" height="16" class="solid filled" rx="0"></rect><rect x="104" y="48" width="8" height="16" class="solid filled" rx="0"></rect><rect x="112" y="48" width="8" height="16" class="solid filled" rx="0"></rect><rect x="128" y="48" width="8" height="16" class="solid filled" rx="0"></rect><rect x="136" y="48" width="8" height="16" class="solid filled" rx="0"></rect><rect x="192" y="48" width="8" height="16" class="solid filled" rx="0"></rect><rect x="200" y="48" width="8" height="16" class="solid filled" rx="0"></rect><rect x="224" y="48" width="8" height="16" class="solid filled" rx="0"></rect><rect x="232" y="48" width="8" height="16" class="solid filled" rx="0"></rect><rect x="256" y="48" width="8" height="16" class="solid filled" rx="0"></rect><rect x="264" y="48" width="8" height="16" class="solid filled" rx="0"></rect><rect x="296" y="48" width="8" height="16" class="solid filled" rx="0"></rect><rect x="304" y="48" width="8" height="16" class="solid filled" rx="0"></rect><rect x="320" y="48" width="8" height="16" class="solid filled" rx="0"></rect><rect x="328" y="48" width="8" height="16" class="solid filled" rx="0"></rect><rect x="368" y="48" width="8" height="16" class="solid filled" rx="0"></rect><rect x="376" y="48" width="8" height="16" class="solid filled" rx="0"></rect><rect x="392" y="48" width="8" height="16" class="solid filled" rx="0"></rect><rect x="400" y="48" width="8" height="16" class="solid filled" rx="0"></rect><rect x="456" y="48" width="8" height="16" class="solid filled" rx="0"></rect><rect x="464" y="48" width="8" height="16" class="solid filled" rx="0"></rect><rect x="488" y="48" width="8" height="16" class="solid filled" rx="0"></rect><rect x="496" y="48" width="8" height="16" class="solid filled" rx="0"></rect><rect x="512" y="48" width="8" height="16" class="solid filled" rx="0"></rect><rect x="520" y="48" width="8" height="16" class="solid filled" rx="0"></rect><rect x="560" y="48" width="8" height="16" class="solid filled" rx="0"></rect><rect x="568" y="48" width="8" height="16" class="solid filled" rx="0"></rect><rect x="0" y="64" width="8" height="16" class="solid filled" rx="0"></rect><rect x="8" y="64" width="8" height="16" class="solid filled" rx="0"></rect><rect x="40" y="64" width="8" height="16" class="solid filled" rx="0"></rect><rect x="48" y="64" width="8" height="16" class="solid filled" rx="0"></rect><rect x="64" y="64" width="8" height="16" class="solid filled" rx="0"></rect><rect x="72" y="64" width="8" height="16" class="solid filled" rx="0"></rect><rect x="104" y="64" width="8" height="16" class="solid filled" rx="0"></rect><rect x="112" y="64" width="8" height="16" class="solid filled" rx="0"></rect><rect x="136" y="64" width="8" height="16" class="solid filled" rx="0"></rect><rect x="144" y="64" width="8" height="16" class="solid filled" rx="0"></rect><rect x="152" y="64" width="8" height="16" class="solid filled" rx="0"></rect><rect x="160" y="64" width="8" height="16" class="solid filled" rx="0"></rect><rect x="168" y="64" width="8" height="16" class="solid filled" rx="0"></rect><rect x="176" y="64" width="8" height="16" class="solid filled" rx="0"></rect><rect x="192" y="64" width="8" height="16" class="solid filled" rx="0"></rect><rect x="200" y="64" width="8" height="16" class="solid filled" rx="0"></rect><rect x="232" y="64" width="8" height="16" class="solid filled" rx="0"></rect><rect x="240" y="64" width="8" height="16" class="solid filled" rx="0"></rect><rect x="256" y="64" width="8" height="16" class="solid filled" rx="0"></rect><rect x="264" y="64" width="8" height="16" class="solid filled" rx="0"></rect><rect x="296" y="64" width="8" height="16" class="solid filled" rx="0"></rect><rect x="304" y="64" width="8" height="16" class="solid filled" rx="0"></rect><rect x="328" y="64" width="8" height="16" class="solid filled" rx="0"></rect><rect x="336" y="64" width="8" height="16" class="solid filled" rx="0"></rect><rect x="344" y="64" width="8" height="16" class="solid filled" rx="0"></rect><rect x="352" y="64" width="8" height="16" class="solid filled" rx="0"></rect><rect x="360" y="64" width="8" height="16" class="solid filled" rx="0"></rect><rect x="368" y="64" width="8" height="16" class="solid filled" rx="0"></rect><rect x="392" y="64" width="8" height="16" class="solid filled" rx="0"></rect><rect x="400" y="64" width="8" height="16" class="solid filled" rx="0"></rect><rect x="408" y="64" width="8" height="16" class="solid filled" rx="0"></rect><rect x="416" y="64" width="8" height="16" class="solid filled" rx="0"></rect><rect x="424" y="64" width="8" height="16" class="solid filled" rx="0"></rect><rect x="432" y="64" width="8" height="16" class="solid filled" rx="0"></rect><rect x="440" y="64" width="8" height="16" class="solid filled" rx="0"></rect><rect x="456" y="64" width="8" height="16" class="solid filled" rx="0"></rect><rect x="464" y="64" width="8" height="16" class="solid filled" rx="0"></rect><rect x="496" y="64" width="8" height="16" class="solid filled" rx="0"></rect><rect x="504" y="64" width="8" height="16" class="solid filled" rx="0"></rect><rect x="512" y="64" width="8" height="16" class="solid filled" rx="0"></rect><rect x="520" y="64" width="8" height="16" class="solid filled" rx="0"></rect><rect x="560" y="64" width="8" height="16" class="solid filled" rx="0"></rect><rect x="568" y="64" width="8" height="16" class="solid filled" rx="0"></rect><g><line x1="16" y1="8" x2="22" y2="8" class="solid"></line><line x1="22" y1="8" x2="22" y2="32" class="solid"></line></g><g><line x1="16" y1="12" x2="18" y2="12" class="solid"></line><line x1="18" y1="12" x2="18" y2="32" class="solid"></line></g><g><line x1="56" y1="8" x2="62" y2="8" class="solid"></line><line x1="62" y1="8" x2="62" y2="92" class="solid"></line><line x1="42" y1="80" x2="42" y2="92" class="solid"></line><line x1="42" y1="92" x2="62" y2="92" class="solid"></line></g><g><line x1="56" y1="12" x2="58" y2="12" class="solid"></line><line x1="58" y1="12" x2="58" y2="88" class="solid"></line><line x1="46" y1="80" x2="46" y2="88" class="solid"></line><line x1="46" y1="88" x2="58" y2="88" class="solid"></line></g><g><line x1="112" y1="8" x2="118" y2="8" class="solid"></line><line x1="118" y1="8" x2="118" y2="16" class="solid"></line></g><g><line x1="112" y1="12" x2="114" y2="12" class="solid"></line><line x1="114" y1="12" x2="114" y2="16" class="solid"></line></g><g><line x1="184" y1="8" x2="190" y2="8" class="solid"></line><line x1="190" y1="8" x2="190" y2="28" class="solid"></line><line x1="150" y1="28" x2="190" y2="28" class="solid"></line><line x1="150" y1="28" x2="150" y2="64" class="solid"></line></g><g><line x1="184" y1="12" x2="186" y2="12" class="solid"></line><line x1="186" y1="12" x2="186" y2="24" class="solid"></line><line x1="146" y1="24" x2="186" y2="24" class="solid"></line><line x1="146" y1="24" x2="146" y2="64" class="solid"></line></g><g><line x1="208" y1="8" x2="214" y2="8" class="solid"></line><line x1="214" y1="8" x2="214" y2="32" class="solid"></line></g><g><line x1="208" y1="12" x2="210" y2="12" class="solid"></line><line x1="210" y1="12" x2="210" y2="32" class="solid"></line></g><g><line x1="248" y1="8" x2="254" y2="8" class="solid"></line><line x1="254" y1="8" x2="254" y2="28" class="solid"></line><line x1="246" y1="28" x2="254" y2="28" class="solid"></line><line x1="246" y1="28" x2="246" y2="44" class="solid"></line><line x1="238" y1="44" x2="246" y2="44" class="solid"></line><line x1="238" y1="44" x2="238" y2="48" class="solid"></line></g><g><line x1="248" y1="12" x2="250" y2="12" class="solid"></line><line x1="250" y1="12" x2="250" y2="24" class="solid"></line><line x1="242" y1="24" x2="250" y2="24" class="solid"></line><line x1="242" y1="24" x2="242" y2="40" class="solid"></line><line x1="234" y1="40" x2="242" y2="40" class="solid"></line><line x1="234" y1="40" x2="234" y2="48" class="solid"></line></g><g><line x1="304" y1="8" x2="310" y2="8" class="solid"></line><line x1="310" y1="8" x2="310" y2="16" class="solid"></line></g><g><line x1="304" y1="12" x2="306" y2="12" class="solid"></line><line x1="306" y1="12" x2="306" y2="16" class="solid"></line></g><g><line x1="376" y1="8" x2="382" y2="8" class="solid"></line><line x1="382" y1="8" x2="382" y2="28" class="solid"></line><line x1="342" y1="28" x2="382" y2="28" class="solid"></line><line x1="342" y1="28" x2="342" y2="64" class="solid"></line></g><g><line x1="376" y1="12" x2="378" y2="12" class="solid"></line><line x1="378" y1="12" x2="378" y2="24" class="solid"></line><line x1="338" y1="24" x2="378" y2="24" class="solid"></line><line x1="338" y1="24" x2="338" y2="64" class="solid"></line></g><g><line x1="448" y1="8" x2="454" y2="8" class="solid"></line><line x1="454" y1="8" x2="454" y2="28" class="solid"></line><line x1="414" y1="28" x2="454" y2="28" class="solid"></line><line x1="414" y1="28" x2="414" y2="32" class="solid"></line></g><g><line x1="448" y1="12" x2="450" y2="12" class="solid"></line><line x1="450" y1="12" x2="450" y2="24" class="solid"></line><line x1="410" y1="24" x2="450" y2="24" class="solid"></line><line x1="410" y1="24" x2="410" y2="32" class="solid"></line></g><g><line x1="480" y1="8" x2="486" y2="8" class="solid"></line><line x1="486" y1="8" x2="486" y2="16" class="solid"></line></g><g><line x1="480" y1="12" x2="482" y2="12" class="solid"></line><line x1="482" y1="12" x2="482" y2="16" class="solid"></line></g><g><line x1="528" y1="8" x2="534" y2="8" class="solid"></line><line x1="534" y1="8" x2="534" y2="92" class="solid"></line><line x1="498" y1="80" x2="498" y2="92" class="solid"></line><line x1="498" y1="92" x2="534" y2="92" class="solid"></line></g><g><line x1="528" y1="12" x2="530" y2="12" class="solid"></line><line x1="530" y1="12" x2="530" y2="88" class="solid"></line><line x1="502" y1="80" x2="502" y2="88" class="solid"></line><line x1="502" y1="88" x2="530" y2="88" class="solid"></line></g><g><line x1="600" y1="8" x2="606" y2="8" class="solid"></line><line x1="606" y1="8" x2="606" y2="28" class="solid"></line><line x1="582" y1="28" x2="606" y2="28" class="solid"></line><line x1="582" y1="28" x2="582" y2="92" class="solid"></line><line x1="562" y1="80" x2="562" y2="92" class="solid"></line><line x1="562" y1="92" x2="582" y2="92" class="solid"></line></g><g><line x1="600" y1="12" x2="602" y2="12" class="solid"></line><line x1="602" y1="12" x2="602" y2="24" class="solid"></line><line x1="578" y1="24" x2="602" y2="24" class="solid"></line><line x1="578" y1="24" x2="578" y2="88" class="solid"></line><line x1="566" y1="80" x2="566" y2="88" class="solid"></line><line x1="566" y1="88" x2="578" y2="88" class="solid"></line></g><g><line x1="82" y1="24" x2="104" y2="24" class="solid"></line><line x1="82" y1="24" x2="82" y2="32" class="solid"></line></g><g><line x1="86" y1="28" x2="104" y2="28" class="solid"></line><line x1="86" y1="28" x2="86" y2="32" class="solid"></line></g><g><line x1="120" y1="24" x2="126" y2="24" class="solid"></line><line x1="126" y1="24" x2="126" y2="92" class="solid"></line><line x1="106" y1="80" x2="106" y2="92" class="solid"></line><line x1="106" y1="92" x2="126" y2="92" class="solid"></line></g><g><line x1="120" y1="28" x2="122" y2="28" class="solid"></line><line x1="122" y1="28" x2="122" y2="88" class="solid"></line><line x1="110" y1="80" x2="110" y2="88" class="solid"></line><line x1="110" y1="88" x2="122" y2="88" class="solid"></line></g><g><line x1="274" y1="24" x2="296" y2="24" class="solid"></line><line x1="274" y1="24" x2="274" y2="32" class="solid"></line></g><g><line x1="278" y1="28" x2="296" y2="28" class="solid"></line><line x1="278" y1="28" x2="278" y2="32" class="solid"></line></g><g><line x1="312" y1="24" x2="318" y2="24" class="solid"></line><line x1="318" y1="24" x2="318" y2="92" class="solid"></line><line x1="298" y1="80" x2="298" y2="92" class="solid"></line><line x1="298" y1="92" x2="318" y2="92" class="solid"></line></g><g><line x1="312" y1="28" x2="314" y2="28" class="solid"></line><line x1="314" y1="28" x2="314" y2="88" class="solid"></line><line x1="302" y1="80" x2="302" y2="88" class="solid"></line><line x1="302" y1="88" x2="314" y2="88" class="solid"></line></g><g><line x1="488" y1="24" x2="494" y2="24" class="solid"></line><line x1="494" y1="24" x2="494" y2="32" class="solid"></line></g><g><line x1="488" y1="28" x2="490" y2="28" class="solid"></line><line x1="490" y1="28" x2="490" y2="32" class="solid"></line></g><g><line x1="538" y1="16" x2="538" y2="28" class="solid"></line><line x1="538" y1="28" x2="560" y2="28" class="solid"></line></g><g><line x1="542" y1="16" x2="542" y2="24" class="solid"></line><line x1="542" y1="24" x2="560" y2="24" class="solid"></line></g><g><line x1="384" y1="40" x2="390" y2="40" class="solid"></line><line x1="390" y1="40" x2="390" y2="76" class="solid"></line><line x1="382" y1="76" x2="390" y2="76" class="solid"></line><line x1="382" y1="76" x2="382" y2="92" class="solid"></line><line x1="330" y1="80" x2="330" y2="92" class="solid"></line><line x1="330" y1="92" x2="382" y2="92" class="solid"></line></g><g><line x1="384" y1="44" x2="386" y2="44" class="solid"></line><line x1="386" y1="44" x2="386" y2="72" class="solid"></line><line x1="378" y1="72" x2="386" y2="72" class="solid"></line><line x1="378" y1="72" x2="378" y2="88" class="solid"></line><line x1="334" y1="80" x2="334" y2="88" class="solid"></line><line x1="334" y1="88" x2="378" y2="88" class="solid"></line></g><g><line x1="432" y1="40" x2="438" y2="40" class="solid"></line><line x1="438" y1="40" x2="438" y2="60" class="solid"></line><line x1="414" y1="60" x2="438" y2="60" class="solid"></line><line x1="414" y1="60" x2="414" y2="64" class="solid"></line></g><g><line x1="432" y1="44" x2="434" y2="44" class="solid"></line><line x1="434" y1="44" x2="434" y2="56" class="solid"></line><line x1="410" y1="56" x2="434" y2="56" class="solid"></line><line x1="410" y1="56" x2="410" y2="64" class="solid"></line></g><g><line x1="474" y1="40" x2="480" y2="40" class="solid"></line><line x1="474" y1="40" x2="474" y2="88" class="solid"></line><line x1="462" y1="80" x2="462" y2="88" class="solid"></line><line x1="462" y1="88" x2="474" y2="88" class="solid"></line></g><g><line x1="478" y1="44" x2="480" y2="44" class="solid"></line><line x1="478" y1="44" x2="478" y2="92" class="solid"></line><line x1="458" y1="80" x2="458" y2="92" class="solid"></line><line x1="458" y1="92" x2="478" y2="92" class="solid"></line></g><g><line x1="496" y1="40" x2="502" y2="40" class="solid"></line><line x1="502" y1="40" x2="502" y2="48" class="solid"></line></g><g><line x1="496" y1="44" x2="498" y2="44" class="solid"></line><line x1="498" y1="44" x2="498" y2="48" class="solid"></line></g><g><line x1="18" y1="56" x2="40" y2="56" class="solid"></line><line x1="18" y1="56" x2="18" y2="88" class="solid"></line><line x1="6" y1="80" x2="6" y2="88" class="solid"></line><line x1="6" y1="88" x2="18" y2="88" class="solid"></line></g><g><line x1="22" y1="60" x2="40" y2="60" class="solid"></line><line x1="22" y1="60" x2="22" y2="92" class="solid"></line><line x1="2" y1="80" x2="2" y2="92" class="solid"></line><line x1="2" y1="92" x2="22" y2="92" class="solid"></line></g><g><line x1="82" y1="56" x2="104" y2="56" class="solid"></line><line x1="82" y1="56" x2="82" y2="88" class="solid"></line><line x1="70" y1="80" x2="70" y2="88" class="solid"></line><line x1="70" y1="88" x2="82" y2="88" class="solid"></line></g><g><line x1="86" y1="60" x2="104" y2="60" class="solid"></line><line x1="86" y1="60" x2="86" y2="92" class="solid"></line><line x1="66" y1="80" x2="66" y2="92" class="solid"></line><line x1="66" y1="92" x2="86" y2="92" class="solid"></line></g><g><line x1="210" y1="56" x2="224" y2="56" class="solid"></line><line x1="210" y1="56" x2="210" y2="88" class="solid"></line><line x1="198" y1="80" x2="198" y2="88" class="solid"></line><line x1="198" y1="88" x2="210" y2="88" class="solid"></line></g><g><line x1="214" y1="60" x2="224" y2="60" class="solid"></line><line x1="214" y1="60" x2="214" y2="92" class="solid"></line><line x1="194" y1="80" x2="194" y2="92" class="solid"></line><line x1="194" y1="92" x2="214" y2="92" class="solid"></line></g><g><line x1="240" y1="56" x2="246" y2="56" class="solid"></line><line x1="246" y1="56" x2="246" y2="64" class="solid"></line></g><g><line x1="240" y1="60" x2="242" y2="60" class="solid"></line><line x1="242" y1="60" x2="242" y2="64" class="solid"></line></g><g><line x1="274" y1="56" x2="296" y2="56" class="solid"></line><line x1="274" y1="56" x2="274" y2="88" class="solid"></line><line x1="262" y1="80" x2="262" y2="88" class="solid"></line><line x1="262" y1="88" x2="274" y2="88" class="solid"></line></g><g><line x1="278" y1="60" x2="296" y2="60" class="solid"></line><line x1="278" y1="60" x2="278" y2="92" class="solid"></line><line x1="258" y1="80" x2="258" y2="92" class="solid"></line><line x1="258" y1="92" x2="278" y2="92" class="solid"></line></g><g><line x1="482" y1="48" x2="482" y2="60" class="solid"></line><line x1="482" y1="60" x2="488" y2="60" class="solid"></line></g><g><line x1="486" y1="48" x2="486" y2="56" class="solid"></line><line x1="486" y1="56" x2="488" y2="56" class="solid"></line></g><g><line x1="504" y1="56" x2="510" y2="56" class="solid"></line><line x1="510" y1="56" x2="510" y2="64" class="solid"></line></g><g><line x1="504" y1="60" x2="506" y2="60" class="solid"></line><line x1="506" y1="60" x2="506" y2="64" class="solid"></line></g><g><line x1="130" y1="64" x2="130" y2="76" class="solid"></line><line x1="130" y1="76" x2="136" y2="76" class="solid"></line></g><g><line x1="134" y1="64" x2="134" y2="72" class="solid"></line><line x1="134" y1="72" x2="136" y2="72" class="solid"></line></g><g><line x1="184" y1="72" x2="190" y2="72" class="solid"></line><line x1="190" y1="72" x2="190" y2="92" class="solid"></line><line x1="138" y1="80" x2="138" y2="92" class="solid"></line><line x1="138" y1="92" x2="190" y2="92" class="solid"></line></g><g><line x1="184" y1="76" x2="186" y2="76" class="solid"></line><line x1="186" y1="76" x2="186" y2="88" class="solid"></line><line x1="142" y1="80" x2="142" y2="88" class="solid"></line><line x1="142" y1="88" x2="186" y2="88" class="solid"></line></g><g><line x1="248" y1="72" x2="254" y2="72" class="solid"></line><line x1="254" y1="72" x2="254" y2="92" class="solid"></line><line x1="234" y1="80" x2="234" y2="92" class="solid"></line><line x1="234" y1="92" x2="254" y2="92" class="solid"></line></g><g><line x1="248" y1="76" x2="250" y2="76" class="solid"></line><line x1="250" y1="76" x2="250" y2="88" class="solid"></line><line x1="238" y1="80" x2="238" y2="88" class="solid"></line><line x1="238" y1="88" x2="250" y2="88" class="solid"></line></g><g><line x1="322" y1="64" x2="322" y2="76" class="solid"></line><line x1="322" y1="76" x2="328" y2="76" class="solid"></line></g><g><line x1="326" y1="64" x2="326" y2="72" class="solid"></line><line x1="326" y1="72" x2="328" y2="72" class="solid"></line></g><g><line x1="448" y1="72" x2="454" y2="72" class="solid"></line><line x1="454" y1="72" x2="454" y2="92" class="solid"></line><line x1="394" y1="80" x2="394" y2="92" class="solid"></line><line x1="394" y1="92" x2="454" y2="92" class="solid"></line></g><g><line x1="448" y1="76" x2="450" y2="76" class="solid"></line><line x1="450" y1="76" x2="450" y2="88" class="solid"></line><line x1="398" y1="80" x2="398" y2="88" class="solid"></line><line x1="398" y1="88" x2="450" y2="88" class="solid"></line></g><g><line x1="490" y1="64" x2="490" y2="76" class="solid"></line><line x1="490" y1="76" x2="496" y2="76" class="solid"></line></g><g><line x1="494" y1="64" x2="494" y2="72" class="solid"></line><line x1="494" y1="72" x2="496" y2="72" class="solid"></line></g></svg>